<svg xmlns="http://www.w3.org/2000/svg" width="495" height="195" viewBox="0 0 495 195" font-family="-apple-system, BlinkMacSystemFont, Segoe UI, Helvetica, Arial, sans-serif">
  <rect x="0.5" y="0.5" width="494" height="194" rx="4.5" fill="#FFFFFF" stroke="#E4E2E2"/>
  <text x="25" y="35" fill="#41B883" font-size="18" font-weight="600">Kengo Nishimura's GitHub Stats</text>

  <g transform="translate(25, 60)">
    <text x="0" y="12.5" fill="#41B883" font-size="14">★</text>
    <text x="25" y="12.5" fill="#273849" font-size="14">Total Stars Earned:</text>
    <text x="180" y="12.5" fill="#273849" font-size="14" font-weight="600">0</text>
  </g>

  <g transform="translate(25, 85)">
    <text x="0" y="12.5" fill="#41B883" font-size="14">⊙</text>
    <text x="25" y="12.5" fill="#273849" font-size="14">Total Commits:</text>
    <text x="180" y="12.5" fill="#273849" font-size="14" font-weight="600">19,071</text>
  </g>

  <g transform="translate(25, 110)">
    <text x="0" y="12.5" fill="#41B883" font-size="14">⇄</text>
    <text x="25" y="12.5" fill="#273849" font-size="14">Total PRs:</text>
    <text x="180" y="12.5" fill="#273849" font-size="14" font-weight="600">363</text>
  </g>

  <g transform="translate(25, 135)">
    <text x="0" y="12.5" fill="#41B883" font-size="14">◎</text>
    <text x="25" y="12.5" fill="#273849" font-size="14">Total Issues:</text>
    <text x="180" y="12.5" fill="#273849" font-size="14" font-weight="600">71</text>
  </g>

  <g transform="translate(25, 160)">
    <text x="0" y="12.5" fill="#41B883" font-size="14">▼</text>
    <text x="25" y="12.5" fill="#273849" font-size="14">Contributed to (last year):</text>
    <text x="180" y="12.5" fill="#273849" font-size="14" font-weight="600">73</text>
  </g>
  
  <g transform="translate(365, 97)">
    <circle r="40" cx="0" cy="0" fill="none" stroke="#E4E2E2" stroke-width="6"/>
    <circle r="40" cx="0" cy="0" fill="none" stroke="#41B883" stroke-width="6"
            stroke-dasharray="251.32741228718345"
            stroke-dashoffset="98.8918263161085"
            stroke-linecap="round"
            transform="rotate(-90)"/>
    <text x="0" y="0" text-anchor="middle" dy=".35em" fill="#273849" font-size="22" font-weight="700">B+</text>
  </g>
</svg>
